HIERARCHY
ROOT hips
{
  OFFSET 0 10.680822821525009 1.3929502295107734
  CHANNELS 6 Xposition Yposition Zposition Yrotation Xrotation Zrotation
  JOINT spine
  {
    OFFSET -7.042017322922631e-31 0.6058489940359625 0
    CHANNELS 3 Yrotation Xrotation Zrotation
    JOINT chest
    {
      OFFSET 0 1.2699794144455032 0
      CHANNELS 3 Yrotation Xrotation Zrotation
      JOINT upperChest
      {
        OFFSET 0 1.217799211677689 0
        CHANNELS 3 Yrotation Xrotation Zrotation
        JOINT neck
        {
          OFFSET 0 1.5248826104153006 0
          CHANNELS 3 Yrotation Xrotation Zrotation
          JOINT head
          {
            OFFSET 0 0.8197772727844447 0
            CHANNELS 3 Yrotation Xrotation Zrotation
            JOINT leftEye
            {
              OFFSET 0.2793952361220866 0.6769952096623495 0.1830357412467788
              CHANNELS 3 Yrotation Xrotation Zrotation
              End Site
              {
                OFFSET 0.2793952361220866 0.6769952096623495 0.1830357412467788
              }
            }
            JOINT rightEye
            {
              OFFSET -0.27939522230689573 0.676995205357064 0.18303631459760622
              CHANNELS 3 Yrotation Xrotation Zrotation
              End Site
              {
                OFFSET -0.27939522230689573 0.676995205357064 0.18303631459760622
              }
            }
          }
        }
        JOINT leftShoulder
        {
          OFFSET 0.41486978509200423 1.1670505408695453 0
          CHANNELS 3 Yrotation Xrotation Zrotation
          JOINT leftUpperArm
          {
            OFFSET 0.9737926108153417 0 0
            CHANNELS 3 Yrotation Xrotation Zrotation
            JOINT leftLowerArm
            {
              OFFSET 2.5269332222665284 0 0
              CHANNELS 3 Yrotation Xrotation Zrotation
              JOINT leftHand
              {
                OFFSET 2.4263782738425914 0 0
                CHANNELS 3 Yrotation Xrotation Zrotation
                JOINT leftIndexProximal
                {
                  OFFSET 0.724320348022514 0.08170607082582437 0.20360061616140124
                  CHANNELS 3 Yrotation Xrotation Zrotation
                  JOINT leftIndexIntermediate
                  {
                    OFFSET 0.36548960630744587 -0.010566596513783999 -0.01414783573280308
                    CHANNELS 3 Yrotation Xrotation Zrotation
                    JOINT leftIndexDistal
                    {
                      OFFSET 0.22502819650693362 -0.007863819831430696 -0.007567681939621526
                      CHANNELS 3 Yrotation Xrotation Zrotation
                      End Site
                      {
                        OFFSET 0.22502819650693362 -0.007863819831430696 -0.007567681939621526
                      }
                    }
                  }
                }
                JOINT leftLittleProximal
                {
                  OFFSET 0.6720322998298205 0.08170601055037707 -0.3230036039466837
                  CHANNELS 3 Yrotation Xrotation Zrotation
                  JOINT leftLittleIntermediate
                  {
                    OFFSET 0.34583592281688713 5.476543019078406e-8 1.3869203337180114e-7
                    CHANNELS 3 Yrotation Xrotation Zrotation
                    JOINT leftLittleDistal
                    {
                      OFFSET 0.19925728062053938 0.003098047439490381 0.0038303983709246925
                      CHANNELS 3 Yrotation Xrotation Zrotation
                      End Site
                      {
                        OFFSET 0.19925728062053938 0.003098047439490381 0.0038303983709246925
                      }
                    }
                  }
                }
                JOINT leftMiddleProximal
                {
                  OFFSET 0.7300436596551069 0.0817073395107144 0.022661722987926763
                  CHANNELS 3 Yrotation Xrotation Zrotation
                  JOINT leftMiddleIntermediate
                  {
                    OFFSET 0.40758254347686607 -0.0000012383587111308714 2.408460318820138e-7
                    CHANNELS 3 Yrotation Xrotation Zrotation
                    JOINT leftMiddleDistal
                    {
                      OFFSET 0.2514490105498507 0.0000013869132886590307 9.738618134136345e-8
                      CHANNELS 3 Yrotation Xrotation Zrotation
                      End Site
                      {
                        OFFSET 0.2514490105498507 0.0000013869132886590307 9.738618134136345e-8
                      }
                    }
                  }
                }
                JOINT leftRingProximal
                {
                  OFFSET 0.7217261161191838 0.08170601902187746 -0.15043395722184966
                  CHANNELS 3 Yrotation Xrotation Zrotation
                  JOINT leftRingIntermediate
                  {
                    OFFSET 0.37808807487521556 0.0000013754022405443322 2.2046919317952884e-7
                    CHANNELS 3 Yrotation Xrotation Zrotation
                    JOINT leftRingDistal
                    {
                      OFFSET 0.21812105442344254 -0.002713483731960231 -0.004991354517454624
                      CHANNELS 3 Yrotation Xrotation Zrotation
                      End Site
                      {
                        OFFSET 0.21812105442344254 -0.002713483731960231 -0.004991354517454624
                      }
                    }
                  }
                }
                JOINT leftThumbProximal
                {
                  OFFSET 0.10793587079521427 -0.1652791240518252 -0.07775251827190094
                  CHANNELS 3 Yrotation Xrotation Zrotation
                  JOINT leftThumbIntermediate
                  {
                    OFFSET 0.40355819082296684 -0.017484006740276614 0.3177776014416309
                    CHANNELS 3 Yrotation Xrotation Zrotation
                    JOINT leftThumbDistal
                    {
                      OFFSET 0.2318764658022603 -0.018510186824293617 0.21396001800186287
                      CHANNELS 3 Yrotation Xrotation Zrotation
                      End Site
                      {
                        OFFSET 0.2318764658022603 -0.018510186824293617 0.21396001800186287
                      }
                    }
                  }
                }
              }
            }
          }
        }
        JOINT rightShoulder
        {
          OFFSET -0.4148697850920044 1.1670505408695453 0
          CHANNELS 3 Yrotation Xrotation Zrotation
          JOINT rightUpperArm
          {
            OFFSET -0.9737926108153414 0 0
            CHANNELS 3 Yrotation Xrotation Zrotation
            JOINT rightLowerArm
            {
              OFFSET -2.5269332222665293 0 0
              CHANNELS 3 Yrotation Xrotation Zrotation
              JOINT rightHand
              {
                OFFSET -2.42637827384259 0 0
                CHANNELS 3 Yrotation Xrotation Zrotation
                JOINT rightIndexProximal
                {
                  OFFSET -0.724320348022514 0.08170607082582437 0.20360061616140124
                  CHANNELS 3 Yrotation Xrotation Zrotation
                  JOINT rightIndexIntermediate
                  {
                    OFFSET -0.36548960630744587 -0.010566596513783999 -0.01414783573280308
                    CHANNELS 3 Yrotation Xrotation Zrotation
                    JOINT rightIndexDistal
                    {
                      OFFSET -0.22502819650693362 -0.007863819831430696 -0.007567681939621526
                      CHANNELS 3 Yrotation Xrotation Zrotation
                      End Site
                      {
                        OFFSET -0.22502819650693362 -0.007863819831430696 -0.007567681939621526
                      }
                    }
                  }
                }
                JOINT rightLittleProximal
                {
                  OFFSET -0.6720322998298205 0.08170601055037707 -0.3230036039466837
                  CHANNELS 3 Yrotation Xrotation Zrotation
                  JOINT rightLittleIntermediate
                  {
                    OFFSET -0.34583592281688713 5.476543019078406e-8 1.3869203337180114e-7
                    CHANNELS 3 Yrotation Xrotation Zrotation
                    JOINT rightLittleDistal
                    {
                      OFFSET -0.19925728062053938 0.003098047439490381 0.0038303983709246925
                      CHANNELS 3 Yrotation Xrotation Zrotation
                      End Site
                      {
                        OFFSET -0.19925728062053938 0.003098047439490381 0.0038303983709246925
                      }
                    }
                  }
                }
                JOINT rightMiddleProximal
                {
                  OFFSET -0.7300436596551069 0.0817073395107144 0.022661722987926763
                  CHANNELS 3 Yrotation Xrotation Zrotation
                  JOINT rightMiddleIntermediate
                  {
                    OFFSET -0.40758254347686607 -0.0000012383587111308714 2.408460318820138e-7
                    CHANNELS 3 Yrotation Xrotation Zrotation
                    JOINT rightMiddleDistal
                    {
                      OFFSET -0.2514490105498507 0.0000013869132886590307 9.738618134136345e-8
                      CHANNELS 3 Yrotation Xrotation Zrotation
                      End Site
                      {
                        OFFSET -0.2514490105498507 0.0000013869132886590307 9.738618134136345e-8
                      }
                    }
                  }
                }
                JOINT rightRingProximal
                {
                  OFFSET -0.7217261161191838 0.08170601902187746 -0.15043395722184966
                  CHANNELS 3 Yrotation Xrotation Zrotation
                  JOINT rightRingIntermediate
                  {
                    OFFSET -0.37808807487521556 0.0000013754022405443322 2.2046919317952884e-7
                    CHANNELS 3 Yrotation Xrotation Zrotation
                    JOINT rightRingDistal
                    {
                      OFFSET -0.21812105442344254 -0.002713483731960231 -0.004991354517454624
                      CHANNELS 3 Yrotation Xrotation Zrotation
                      End Site
                      {
                        OFFSET -0.21812105442344254 -0.002713483731960231 -0.004991354517454624
                      }
                    }
                  }
                }
                JOINT rightThumbProximal
                {
                  OFFSET -0.10793587079521427 -0.1652791240518252 -0.07775251827190094
                  CHANNELS 3 Yrotation Xrotation Zrotation
                  JOINT rightThumbIntermediate
                  {
                    OFFSET -0.40355819082296684 -0.017484006740276614 0.3177776014416309
                    CHANNELS 3 Yrotation Xrotation Zrotation
                    JOINT rightThumbDistal
                    {
                      OFFSET -0.2318764658022603 -0.018510186824293617 0.21396001800186287
                      CHANNELS 3 Yrotation Xrotation Zrotation
                      End Site
                      {
                        OFFSET -0.2318764658022603 -0.018510186824293617 0.21396001800186287
                      }
                    }
                  }
                }
              }
            }
          }
        }
      }
    }
  }
  JOINT leftUpperLeg
  {
    OFFSET 0.8486251390888677 -0.4421577294694363 0
    CHANNELS 3 Yrotation Xrotation Zrotation
    JOINT leftLowerLeg
    {
      OFFSET 0 -4.10147812638609 0
      CHANNELS 3 Yrotation Xrotation Zrotation
      JOINT leftFoot
      {
        OFFSET -0.0002543926476658853 -4.77292286812444 0.007402811231737388
        CHANNELS 3 Yrotation Xrotation Zrotation
        JOINT leftToes
        {
          OFFSET 0 -0.7027875951174846 1.2062924140498823
          CHANNELS 3 Yrotation Xrotation Zrotation
          End Site
          {
            OFFSET 0 -0.7027875951174846 1.2062924140498823
          }
        }
      }
    }
  }
  JOINT rightUpperLeg
  {
    OFFSET -0.8486251390888677 -0.4421577294694363 0
    CHANNELS 3 Yrotation Xrotation Zrotation
    JOINT rightLowerLeg
    {
      OFFSET 0 -4.10147812638609 0
      CHANNELS 3 Yrotation Xrotation Zrotation
      JOINT rightFoot
      {
        OFFSET 0.0002543926476658853 -4.77292286812444 0.007402811231737388
        CHANNELS 3 Yrotation Xrotation Zrotation
        JOINT rightToes
        {
          OFFSET 0 -0.7027875951174846 1.2062924140498823
          CHANNELS 3 Yrotation Xrotation Zrotation
          End Site
          {
            OFFSET 0 -0.7027875951174846 1.2062924140498823
          }
        }
      }
    }
  }
}
MOTION
Frames: 4
Frame Time: 0.03333333333333333
-0.06927583366632462 -1.5630058964761808 0.14093688130378723 -46.300318341985296 -8.745721803270444 -0.02807179644787717 3.144827440126725 22.06867246411446 -0.46646988887758495 0.9104195111132023 1.2051728666096355 -2.564254681187674 0 0 0 3.7246134964921787 13.033191489966958 -2.8531735137321776 21.755925558461378 -3.420847560560654 -9.475905983626992 0 0 0 0 0 0 -8.106433105495128 3.105549377189113 1.7755130640152335 9.253252544026116 -55.06454734036164 -46.93719095190379 -109.4732780872125 -6.666433215758459 11.484975127360569 -6.033610118758346 -6.72009707193141 8.644607016529058 6.171647588609032 6.333915070940341 -91.23321482994731 5.74763280325668 3.9189557158331145 -68.5530490352484 2.2315399663495095 0.4179761730565265 -21.216225992447406 6.4571285160892415 9.806730278001208 -85.63610620112742 2.0110991783838705 5.334249063830188 -82.30617029404557 3.1422470158827864 0.8605759478658634 -30.62712644804783 6.176937858074354 6.153778937560699 -89.7975528336205 6.148697712822172 5.589540926280288 -84.53766898400966 3.323014152917963 0.9718284106138286 -32.596963936843935 6.10729571218697 7.103484349989041 -98.74676426114566 5.967703839507333 4.58706544171562 -75.07613359414931 3.9996424834615874 1.472435490675975 -40.41029170021963 0.4365804353342528 -19.24895759785251 -0.1355252537127857 37.17788547116255 9.109503369227264 11.425666872190856 38.835008935464344 7.057150186665755 4.559455191728075 25.96695555102571 8.21172391513418 2.9296426355812715 44.50587483990825 -53.28528689022556 24.67714171950893 109.0448467094651 -6.6914465018937745 -11.429680383806533 3.133954654260243 5.263684482271064 -2.1206902408941546 -6.071490145404577 1.5898811409265028 81.16998194801717 -6.173798864906133 5.308215018729391 81.36329527044788 -3.2821734138355354 0.9338800741024114 31.757892636620483 -5.827737855812668 8.243940557520537 99.54941898837227 -6.231682030027339 6.64939180039613 93.72261043403515 -4.474048329559601 1.8915132355175348 45.81748965125388 -6.33636797734495 5.423549165769155 89.18903840268685 -6.243934438511537 6.354023338498704 91.00342785724357 -3.817973589350151 1.2939686286561178 37.66711411627173 -6.2410215856608655 6.800932644610583 96.38194426878768 -6.2442820680539 6.157119805240501 89.19322166287566 -3.824468902822949 1.3036016702205313 37.77265722257421 -5.080772818890666 7.827046886582211 -7.697784914931987 -20.129611853704617 -0.1597834780975018 -0.8451432522347315 -25.502841296597808 6.521396033711229 -12.946048251506399 11.524983762054488 -32.187786834506554 16.99122893232517 6.949893594243875 61.333494043333495 4.783157274348934 1.3050466771441294 -16.958673141954456 -7.429059076803894 -0.0027678430145117827 -1.821724781748701 -0.2632751192172817 -8.630423555947528 -16.089339121938735 -15.834785332998411 13.149130930741698 54.82232115391479 2.4791455772757605 -4.429273252724823 -30.601822006353473 16.31135095667931 0.000019053862839011074 -1.0374866574049304 -4.911047587310954e-7
-0.07871821522712708 -1.5652403553995207 0.12644469738006592 -46.20241284145142 -8.88808207231814 0.04866425658420965 3.104948330689434 22.094201356667956 -0.4263436850096402 0.8960802624579425 1.2681737345756843 -2.5598068204501585 0 0 0 3.7023475466842437 12.998973310734723 -2.8632191887573324 21.6638430826542 -3.601077509761444 -9.538921408972305 0 0 0 0 0 0 -8.01884013645729 3.081071025781026 1.6844313067502292 9.087003038420852 -54.68152603415235 -46.818012839162485 -109.53767047851976 -6.662654492685905 11.493257032696768 -6.135490596412408 -6.620295413819693 8.641476074223018 6.171663686594304 6.333257923172601 -91.22704365600097 5.7472094612659035 3.9178671711417232 -68.54231762071352 2.231945237103762 0.4181264412181652 -21.220223447468925 6.4559593326891225 9.80877940090921 -85.65437910244687 2.010969380371723 5.333184065699521 -82.29615180487954 3.1416419908838704 0.8602226591864158 -30.620659667173406 6.176923844999872 6.1523375749682385 -89.78406385714806 6.148743136254413 5.5901113985149395 -84.54301635953735 3.32370848356347 0.9722653921629936 -32.60472648213448 6.107358844301626 7.1029470445271325 -98.74172345293262 5.968066721981501 4.58843201606672 -75.08934384390064 4.000475232528397 1.4731424353549025 -40.42032298841656 0.43071213871436553 -19.266999977820873 -0.1290409490914332 37.16496083575204 9.138037199268137 11.40722491891414 38.815494383397244 7.0692684062238795 4.543667065719047 25.865974140794606 8.22441236684643 2.7175814635648448 44.31292894865527 -53.46638509631767 24.764840873198704 109.18559298806773 -6.6832899764784 -11.447870198816352 3.0476498368836213 5.073070705596313 -2.020270437528371 -6.0808018201289045 1.658330596185254 81.24715167922707 -6.174731918659349 5.314290088095737 81.41966800531449 -3.2714460420611102 0.9272656576078465 31.642138218834848 -5.812375357138295 8.296179784765922 99.79467076461981 -6.2317242431793956 6.648206474644638 93.71157258729482 -4.474316013171406 1.8917915039291144 45.821102294856914 -6.334924172214213 5.443970992670495 89.22081167425317 -6.24411831560141 6.343718268783569 90.90856865051686 -3.8193175797529473 1.2947897415402236 37.68114441612799 -6.241422665107322 6.801845778276023 96.41499406215932 -6.244172342476765 6.149270667211306 89.1209830702197 -3.8166139817292626 1.297051219313272 37.67834654686995 -5.075766230707249 7.732257624533509 -7.6824322436005 -20.129621045249834 -0.15977891572683914 -0.8451225503959948 -25.547093431923933 6.487761969931577 -12.968868956994559 11.540641718560183 -32.071704898479965 17.033380645028952 6.521759686025839 61.269914051995656 4.4234484145008865 1.3125133437592753 -16.856638772209397 -7.498667565269003 -0.003132672070578149 -1.7993302179312816 -0.3094289900263465 -8.74135835709069 -16.026421712893384 -15.860228675074726 13.22529471518002 54.9856070100979 2.5623706601909784 -4.412783756618223 -30.7384983953275 16.25067544340752 0.000033343077804258996 -0.988930292757332 0.0000042768752108245715
-0.10328786820173264 -1.5523800572427824 0.09174604713916779 -45.98507231391584 -9.065288991716036 0.11248242698124176 3.0602197532221145 22.003059996450727 -0.3181696437116845 0.8757724675749402 1.3374788014102375 -2.545757534727216 0 0 0 3.656120453461453 12.949818289152665 -2.8502104492475038 21.451533919386833 -3.8271707480703983 -9.574170722687521 0 0 0 0 0 0 -7.8884034929084805 3.046700834835065 1.6009633856996255 8.841385135638806 -54.24013439798257 -46.5562623036232 -109.57994885474373 -6.6601604310654965 11.498759139344738 -6.190803779305968 -6.564893113464899 8.567728299848543 6.171640122513838 6.334246651700188 -91.2362415196991 5.74630257514462 3.9155938117368154 -68.51965692692072 2.2322501299073116 0.4182488809563996 -21.223193157359237 6.452283478743207 9.815218841298696 -85.71214573967944 2.0104586655000047 5.329577062810019 -82.26245343156242 3.1395818500285984 0.8589930867563786 -30.598373916332317 6.1769197644730225 6.1507948876707115 -89.76966515170517 6.148759120044949 5.590490569841612 -84.5465193119766 3.3247914156936287 0.9729502172937409 -32.61653664459071 6.107461818238095 7.102323271960192 -98.73579728989729 5.968800940231467 4.591179733491911 -75.11561641277706 4.001685422397866 1.4741842770688125 -40.43520763707185 0.43414669273569584 -19.289321014485107 -0.09820846720842312 37.166922895429316 9.140653073155004 11.406117176604598 38.78539738542143 7.090669635147821 4.51747135829397 25.723626111768837 8.26641594939517 2.3004530437895307 44.00677895377212 -53.966698970649134 24.750029537649805 109.55120874927158 -6.6619131065096955 -11.494996309525229 2.8518675484166254 4.808282949490832 -2.0276142602041225 -6.090242697294995 1.753839887564989 81.31844818473557 -6.175276034532122 5.317909005807867 81.45324475341629 -3.2551830967708977 0.9172740375988943 31.466961566200563 -5.783604925075776 8.389910341135261 99.98180191947188 -6.232146039205772 6.642135915288528 93.6556937200638 -4.470548118572811 1.887904933277442 45.7715042054321 -6.331691930384503 5.470807642270506 89.21507774808724 -6.244390949959278 6.324312636032495 90.73016204253754 -3.8190369548844476 1.2948149342954225 37.67946843023426 -6.240985309160651 6.803024170378615 96.40559669191899 -6.24387126676025 6.131170990243062 88.95454231554771 -3.8042127101797707 1.2876881700116112 37.536285306216016 -5.132388341292844 7.553254938323224 -7.705212725325361 -20.12957946931682 -0.15971855102737714 -0.8450718095480547 -25.572816082199715 6.469194207112688 -12.981661846316875 11.544004587323103 -31.78106303643585 17.13598551571246 5.828060221490457 60.73117670027576 3.9090984006996337 1.318861478358043 -16.409371370620157 -7.6755615221962215 -0.0032553567104904647 -1.8066019930029713 -0.33217256483877183 -8.984365621357071 -15.78840151803157 -15.691816474405496 13.07204805143665 54.9573454301121 2.475002089821456 -4.379178493501977 -30.775294287906014 16.080181308862127 0.00004843579198589813 -0.9195707703243926 -0.0000026658566412618165
-0.13439203798770905 -1.5120482167276457 0.04930128902196884 -45.74149717906554 -9.036994371849623 0.044858733159703665 3.083860492638325 21.655200950810347 -0.18428633950164794 0.8724227497426159 1.3280309476803653 -2.5057610405620014 0 0 0 3.596642208768249 12.941715791907885 -2.7786862577863634 21.144650551514815 -3.8310538412412036 -9.462835949007824 0 0 0 0 0 0 -7.8522898848995695 3.0396553776711515 1.660284948317856 8.643891629548943 -54.333150941195264 -46.19323408194531 -109.45156789472715 -6.667680046037885 11.482196370193833 -6.045981178771885 -6.66600557218413 8.42619329215884 6.171527689511542 6.338803761190306 -91.27862433705928 5.745531607340011 3.913645650759919 -68.5001239891962 2.2315275956909977 0.4179545613360728 -21.216101679431546 6.446939460765638 9.824562837543796 -85.79587878063622 2.009741751023417 5.324266708180778 -82.21271831683939 3.1368879115787007 0.8574131081112568 -30.569341931757766 6.176928806428342 6.151474133237845 -89.77608374393547 6.148697903587688 5.5896760380750985 -84.53888286297496 3.3254518765538936 0.9733684132570896 -32.62386433049583 6.107385672577055 7.102779701320948 -98.74025276917901 5.969572438070977 4.594035811962915 -75.14310204421623 4.002271561312876 1.4746962838936268 -40.44231165084218 0.45610159228069325 -19.282347059739383 -0.038826219975908044 37.20426395865211 9.074502860604065 11.450183640761113 38.76929611715817 7.106273702447157 4.499959078700138 25.61053042535791 8.314842646797308 1.9094265068399578 43.83707647849279 -54.58319511123393 24.528667914369475 109.98320169343769 -6.636236477791778 -11.5505145828894 2.5972028480761824 4.719368166531611 -2.253926785679808 -6.088699423363658 1.8087981380030993 81.28038218876007 -6.1743758152778465 5.31206198407053 81.39906149658584 -3.249964954594126 0.9140663205465737 31.410873404631168 -5.7603695951805305 8.466133665787513 99.81211211721961 -6.232842614158983 6.6312408995245855 93.55522933107588 -4.4621071444133635 1.8792649847768337 45.660794034535186 -6.326828972041651 5.490211262457196 89.11888563045781 -6.244574404060755 6.308181273173514 90.58167286952937 -3.8161379107018694 1.2943961581472294 37.657990001811555 -6.236482293577557 6.815120805571592 96.32293035580281 -6.243465913327627 6.111889559099584 88.77733407258692 -3.7974053442666613 1.2853529373082 37.47704976762506 -5.29226410532804 7.381165372764894 -7.809321011493469 -20.129393607205113 -0.1594171010601412 -0.8447631553768403 -25.51495531581174 6.516175607110402 -12.95086488687849 11.554804418287429 -31.416697317349 17.242383977441545 5.396024748098301 59.51858629210125 3.6851356578342003 1.3082518298182964 -15.613373372744714 -7.889933182141165 -0.0026843938448621856 -1.8425130578309543 -0.2539782062036624 -9.260672156268505 -15.42045290729307 -15.221704748482296 12.625378525836522 54.334949103882096 2.152202779208535 -4.321205568539626 -30.41051388606117 15.81444196198173 -0.00004169000822442211 -0.9279673380600904 7.297603813312805e-7
